<?xml version="1.0" standalone="no"?>
<!DOCTYPE svg PUBLIC "-//W3C//DTD SVG 20010904//EN"
 "http://www.w3.org/TR/2001/REC-SVG-20010904/DTD/svg10.dtd">
<svg version="1.0" xmlns="http://www.w3.org/2000/svg"
 width="200.000000pt" height="200.000000pt" viewBox="0 0 200.000000 200.000000"
 preserveAspectRatio="xMidYMid meet">
<metadata>
Created by potrace 1.14, written by Peter Selinger 2001-2017
</metadata>
<g transform="translate(0.000000,200.000000) scale(0.100000,-0.100000)"
fill="#000000" stroke="none">
<path d="M825 1948 c-27 -5 -54 -14 -60 -20 -7 -7 1 -8 25 -3 22 4 30 3 22 -3
-10 -7 -7 -13 12 -25 14 -10 33 -17 43 -17 29 0 194 36 189 41 -6 5 220 -8
259 -16 29 -5 29 -5 5 5 -84 37 -376 59 -495 38z m98 -5 c-7 -2 -21 -2 -30 0
-10 3 -4 5 12 5 17 0 24 -2 18 -5z m-66 -9 c-3 -3 -12 -4 -19 -1 -8 3 -5 6 6
6 11 1 17 -2 13 -5z"/>
<path d="M645 1895 c-59 -25 -89 -45 -68 -45 6 0 32 9 58 21 25 11 48 19 51
17 2 -3 -21 -15 -51 -27 l-55 -23 16 -30 c8 -16 19 -28 23 -26 4 2 53 21 109
43 56 22 102 43 102 46 0 13 -50 39 -87 44 -27 4 -55 -2 -98 -20z m90 5 c-27
-12 -43 -12 -25 0 8 5 22 9 30 9 10 0 8 -3 -5 -9z"/>
<path d="M991 1880 c-51 -11 -96 -21 -98 -24 -3 -3 16 -29 41 -59 l47 -54 112
29 c61 16 113 30 115 33 4 4 -110 95 -118 94 -3 0 -47 -9 -99 -19z"/>
<path d="M1137 1883 c96 -80 91 -78 188 -75 93 4 210 -12 233 -30 7 -6 15 -9
18 -6 8 8 -126 85 -173 100 -24 7 -43 15 -43 18 0 3 -55 6 -123 8 -118 3 -121
2 -100 -15z"/>
<path d="M472 1804 c-40 -25 -72 -50 -72 -56 0 -6 10 -4 23 4 63 42 125 78
133 78 5 0 0 -6 -11 -12 -11 -6 -50 -31 -87 -55 -65 -42 -68 -46 -68 -83 l0
-39 92 59 c50 33 96 61 102 63 11 4 -21 87 -34 87 -3 0 -39 -21 -78 -46z"/>
<path d="M747 1806 c-59 -24 -110 -46 -113 -49 -7 -7 54 -127 65 -127 5 0 57
21 117 46 60 25 118 49 129 53 18 7 15 13 -35 64 l-55 57 -108 -44z"/>
<path d="M1318 1773 c-43 -5 -47 -12 -17 -39 12 -10 43 -47 70 -81 l49 -61 53
14 c28 7 62 14 74 14 40 0 36 21 -13 74 -42 44 -40 43 9 -6 55 -55 62 -58 107
-58 27 0 61 -5 77 -10 22 -8 12 5 -43 59 -66 63 -77 70 -140 84 -47 11 -70 13
-75 5 -5 -7 -9 -7 -13 1 -7 11 -59 12 -138 4z"/>
<path d="M1130 1734 c-52 -14 -98 -28 -102 -32 -4 -4 23 -50 59 -103 l65 -97
112 39 c61 22 117 42 125 44 23 9 -119 175 -149 175 -8 -1 -58 -12 -110 -26z"/>
<path d="M312 1677 c-34 -34 -62 -70 -62 -79 0 -9 -5 -20 -12 -24 -7 -5 -9 -2
-3 7 4 8 -4 1 -18 -16 -53 -62 -146 -260 -153 -325 -2 -14 -10 -52 -18 -85 -9
-33 -16 -85 -15 -115 l0 -55 20 55 c12 30 27 71 34 90 7 19 16 34 20 32 3 -2
16 10 27 25 12 15 34 42 49 58 27 29 28 33 22 107 l-6 78 -39 -53 c-22 -28
-49 -71 -60 -95 -11 -23 -22 -41 -25 -39 -8 9 48 113 92 172 25 33 45 69 46
80 0 11 3 14 6 8 3 -8 32 12 79 55 72 64 74 69 72 109 -1 23 4 48 11 57 8 9 9
16 4 16 -5 0 -37 -28 -71 -63z m48 20 c0 -2 -15 -16 -32 -33 l-33 -29 29 33
c28 30 36 37 36 29z"/>
<path d="M519 1692 c-42 -26 -88 -56 -102 -67 l-26 -20 15 -67 c9 -38 20 -68
26 -68 5 0 28 13 51 28 23 16 72 46 109 66 37 21 70 42 73 46 7 11 -52 130
-63 130 -4 0 -41 -22 -83 -48z"/>
<path d="M851 1635 c-68 -30 -125 -56 -127 -57 -4 -5 106 -218 112 -218 3 0
31 12 62 27 31 14 95 43 142 64 47 22 84 44 82 50 -6 22 -126 189 -137 189 -5
-1 -66 -25 -134 -55z"/>
<path d="M1652 1584 c-10 -5 -10 -11 3 -30 8 -13 22 -35 31 -49 9 -14 14 -25
11 -25 -3 0 -19 23 -37 50 -36 57 -35 57 -147 21 l-51 -16 66 -112 c37 -62 72
-113 77 -113 6 0 41 16 78 36 l67 35 -26 45 c-14 24 -24 44 -21 44 3 0 16 -18
28 -40 13 -22 27 -40 31 -40 8 0 88 38 97 46 4 3 -51 98 -74 128 -10 14 -30
20 -67 22 -29 2 -59 1 -66 -2z"/>
<path d="M1318 1487 c-59 -23 -110 -45 -113 -49 -4 -4 26 -65 65 -137 l72
-130 119 60 c65 32 119 62 119 65 0 16 -135 234 -145 233 -5 0 -58 -19 -117
-42z"/>
<path d="M1016 1355 c-76 -35 -140 -66 -142 -67 -7 -8 138 -278 149 -278 17 1
285 143 288 153 3 14 -134 257 -146 257 -6 0 -73 -29 -149 -65z"/>
<path d="M1835 1359 c-22 -17 -40 -34 -40 -38 0 -16 70 -201 77 -201 10 0 42
50 58 88 11 29 10 40 -15 107 -15 41 -30 75 -34 74 -3 0 -24 -14 -46 -30z"/>
<path d="M1707 1277 c-80 -47 -79 -35 -17 -184 48 -116 45 -115 123 -35 l48
49 -29 79 c-16 44 -35 91 -43 106 l-14 26 -68 -41z"/>
<path d="M743 1200 c-77 -36 -82 -40 -74 -62 5 -13 39 -85 75 -161 36 -76 66
-141 66 -143 0 -3 -90 41 -199 97 l-199 102 -74 -53 c-40 -29 -75 -54 -77 -56
-2 -2 58 -136 133 -298 l138 -294 81 38 c45 21 83 43 85 48 1 5 -31 80 -73
167 -41 87 -73 160 -71 163 3 2 98 -44 212 -103 l208 -107 69 33 c38 19 71 37
74 42 5 9 -278 626 -287 626 -3 0 -42 -17 -87 -39z"/>
<path d="M173 1177 c-73 -80 -74 -81 -57 -176 8 -46 18 -89 22 -96 5 -9 26 4
70 44 l62 56 -28 108 -28 109 -41 -45z"/>
<path d="M1495 1158 c-60 -33 -111 -62 -112 -63 -3 -2 112 -253 119 -261 4 -3
54 26 112 66 l105 72 -21 57 c-37 99 -76 185 -85 188 -4 1 -57 -25 -118 -59z"/>
<path d="M1948 1174 c-5 -4 -8 -14 -8 -22 0 -8 -13 -34 -29 -58 -26 -37 -29
-48 -20 -76 5 -18 9 -42 8 -53 0 -11 -6 1 -12 27 l-12 47 -61 -59 -61 -59 18
-78 c10 -43 19 -88 19 -101 0 -33 12 -25 69 45 42 53 49 67 46 100 -2 34 -2
35 4 8 l7 -30 23 50 c14 29 25 77 28 115 4 70 -7 157 -19 144z"/>
<path d="M36 933 c-8 -24 11 -153 25 -167 13 -14 10 46 -5 124 -10 50 -14 60
-20 43z"/>
<path d="M1659 852 c-41 -32 -88 -66 -103 -77 l-27 -20 32 -95 c17 -52 35 -99
40 -104 4 -5 45 23 94 64 64 54 85 78 85 97 0 27 -29 162 -39 180 -4 7 -33 -9
-82 -45z"/>
<path d="M1936 862 c-11 -26 -46 -82 -78 -125 l-59 -78 3 -67 3 -67 37 50 c66
87 108 186 115 265 3 38 4 70 2 70 -2 0 -13 -21 -23 -48z"/>
<path d="M79 725 c-2 -33 2 -48 29 -110 31 -73 30 -71 43 -58 7 7 1 34 -22 89
-36 89 -48 107 -50 79z"/>
<path d="M1450 709 c-25 -16 -79 -48 -120 -70 -41 -23 -80 -46 -87 -51 -9 -7
0 -34 37 -109 28 -54 52 -99 55 -99 9 0 191 111 219 133 l27 22 -30 85 c-37
109 -42 120 -50 119 -3 0 -26 -14 -51 -30z"/>
<path d="M1735 602 c-27 -26 -66 -61 -86 -77 l-37 -30 11 -62 c5 -35 13 -63
17 -63 5 0 40 30 80 68 l71 67 -3 72 -3 72 -50 -47z"/>
<path d="M1836 546 c-25 -36 -46 -73 -46 -83 0 -12 -3 -14 -8 -6 -5 9 -31 -10
-81 -61 -60 -61 -72 -78 -69 -101 3 -27 4 -27 70 39 78 77 148 172 171 234 9
23 15 42 13 42 -2 0 -25 -29 -50 -64z"/>
<path d="M1110 527 c-47 -24 -109 -52 -139 -65 -63 -26 -63 -23 15 -132 l57
-79 51 20 c51 20 208 89 214 94 5 4 -102 205 -108 204 -3 0 -43 -19 -90 -42z"/>
<path d="M1535 444 c-27 -19 -78 -51 -112 -70 -35 -20 -63 -40 -63 -45 0 -13
49 -109 55 -109 10 0 182 110 192 122 11 14 -4 139 -16 137 -3 0 -28 -16 -56
-35z"/>
<path d="M1290 305 c-14 -8 -67 -31 -117 -51 -51 -21 -93 -40 -93 -44 0 -3 20
-25 44 -49 l45 -44 48 18 c51 19 165 66 172 72 8 6 -53 113 -64 113 -5 -1 -21
-7 -35 -15z"/>
<path d="M1575 293 c-22 -16 -65 -44 -96 -63 -53 -31 -56 -35 -46 -57 5 -13
13 -23 16 -23 14 0 162 101 167 114 3 8 4 24 2 36 -3 21 -4 21 -43 -7z"/>
<path d="M960 184 c-47 -12 -95 -23 -107 -23 -34 -1 -28 -17 17 -47 22 -15 38
-29 36 -32 -3 -2 -28 12 -56 33 l-51 37 -87 -6 c-60 -5 -105 -2 -144 7 -67 16
-67 9 0 -28 84 -47 172 -61 362 -55 32 1 120 17 171 30 l40 11 -42 47 c-24 26
-46 48 -49 48 -3 1 -43 -9 -90 -22z"/>
<path d="M1325 154 c-44 -19 -93 -38 -109 -44 -28 -10 -29 -11 -10 -25 28 -21
53 -18 135 15 88 37 91 39 76 66 -12 20 -12 20 -92 -12z"/>
<path d="M1080 75 c-30 -7 -68 -14 -85 -14 -17 -1 -25 -5 -18 -9 6 -4 -30 -6
-80 -5 -77 2 -88 1 -67 -9 49 -23 335 -8 384 20 12 7 -35 31 -59 30 -11 0 -45
-6 -75 -13z"/>
</g>
</svg>
